PathFileType	4	(X/Y/Z)	pose_F01_0-96.trc
DataRate	CameraRate	NumFrames	NumMarkers	Units	OrigDataRate	OrigDataStartFrame	OrigNumFrames
30	30	10	21	m	30	48	96
Frame#	Time	CHip			RHip			RKnee			RAnkle			RBigToe			RSmallToe			RHeel			LHip			LKnee			LAnkle			LBigToe			LSmallToe			LHeel			Neck			Nose			RShoulder			RElbow			RWrist			LShoulder			LElbow			LWrist			
		X1	Y1	Z1	X2	Y2	Z2	X3	Y3	Z3	X4	Y4	Z4	X5	Y5	Z5	X6	Y6	Z6	X7	Y7	Z7	X8	Y8	Z8	X9	Y9	Z9	X10	Y10	Z10	X11	Y11	Z11	X12	Y12	Z12	X13	Y13	Z13	X14	Y14	Z14	X15	Y15	Z15	X16	Y16	Z16	X17	Y17	Z17	X18	Y18	Z18	X19	Y19	Z19	X20	Y20	Z20	X21	Y21	Z21	
48	1.6	-0.2721219741926874	1.8835597527450856	-0.6473221141145323	-0.28907324057378747	1.8806178586308075	-0.5835909365883147																-0.258298362770076	1.8874632876190909	-0.7068873441319158	-0.226329040830505	1.7286890647387418	-0.6184976157330442													-0.274297274682296	2.0454779599362984	-0.6692699946844651	-0.26340371875962454	2.1018064740218967	-0.6384352444497261	-0.2990041469800546	2.038493807359101	-0.5864722083931942	-1.589197191044692	1.8715665498640193	0.8313753729102759	-0.31448230220919277	2.0070752517793395	-0.44604757300257336	-0.25030933004970646	2.054253037328243	-0.7531688080098502	-0.2207101268116625	2.0004013833286365	-0.7391202888733703	-0.2227789704626015	2.020279035359353	-0.6137952797375197
49	1.6333333333333333	-0.2788108985481497	1.8830222742872778	-0.6407443234979667	-0.2937567803835215	1.8800279919965854	-0.5789677970001216																-0.2639115856981073	1.88843130129309	-0.7054101663988841	-0.226329040830505	1.7286890647387418	-0.6184976157330442													-0.27957977699537007	2.0495343899444802	-0.6599652570751365	-0.268533947817101	2.1055332199306953	-0.637824221307347	-0.3038391241579002	2.041610595440637	-0.5767514495363494	-0.32882444384079396	1.9727058405770161	-0.48772097504326817	-0.3229017414467349	2.019564322383606	-0.4429234265148128	-0.2569832670399168	2.0574900334081994	-0.7472846842906666	-0.22541453551679624	2.0093998990295705	-0.747014355152013	-0.23504141002941037	2.02920726715659	-0.6014201432240318
50	1.6666666666666667	-0.2830071316219598	1.8862937525311447	-0.6366539005870445	-0.29561712387968403	1.8851019412149774	-0.5771369040644501																-0.26588758382770805	1.892498080174628	-0.7037241722559838	-0.226329040830505	1.7286890647387418	-0.6184976157330442													-0.28377286109549715	2.0496243248662815	-0.655532588337559	-0.272532471651924	2.109498317294731	-0.6335138796729299	-0.30506443954992196	2.042756147677352	-0.5718411316480053	-0.33392837101514516	1.9761966272111344	-0.4791219863836394	-0.32483257951140637	2.0259180672238664	-0.442097144672856	-0.25842141331802254	2.0571646703976487	-0.7420804150640842	-0.2323459743686668	2.0070005534399598	-0.7402829018185131	-0.23547240231042332	2.0250912002733346	-0.6296963886909264
51	1.7	-0.2848660935791798	1.8882332451158006	-0.6346168724149741	-0.2975562711184741	1.8847655145979834	-0.5751995196601795																-0.26781362877551596	1.891606413952631	-0.7012955970633472	-0.226329040830505	1.7286890647387418	-0.6184976157330442													-0.2861408119819343	2.048372201929975	-0.6532931653783277	-0.2758676601042482	2.107897943779851	-0.6266595721579244	-0.3082578432146741	2.039810593331097	-0.5724433460929877	-0.3335425659390447	1.975557715342699	-0.47028852854943326	-0.3258029087363949	2.026877990647621	-0.43723588265078084	-0.26418183953226904	2.0567407201482872	-0.7324393724850464	-0.23984493649015426	2.006128446713916	-0.7165456895361859	-0.258521940569862	2.040179980937503	-0.5815372713151475
52	1.7333333333333334	-0.28500158478132875	1.886292257353384	-0.6346255244528601	-0.2965203560287882	1.8846617385031337	-0.58040057976885																-0.2679227057393631	1.8924306955183603	-0.7014842049019734	-0.226329040830505	1.7286890647387418	-0.6184976157330442													-0.28839391802598285	2.0433795670534063	-0.6504589276025026	-0.27901940940242786	2.1040622866534364	-0.6264139630295226	-0.3102100772228698	2.0362155424753268	-0.5695900344255361	-0.33358402880341836	1.9731030507252294	-0.46998549081329116	-0.3308405555087289	2.0281623098818757	-0.4445782984123632	-0.26637645399158505	2.055837772034846	-0.7296815346394405	-0.24654815386869192	2.004588726464828	-0.6900199540987307	-0.26423078759416097	2.0398851102447413	-0.5643569930097753
53	1.7666666666666666	-0.2864576384330185	1.8858350460339577	-0.6376562204949555	-0.29986024247413423	1.8815880927610675	-0.5812358627478789																-0.26933294400715263	1.8911359010599786	-0.7044617140988665	-0.226329040830505	1.7286890647387418	-0.6184976157330442													-0.2949246457215732	2.0418624158262273	-0.6440741229711348	-0.28345751588671664	2.100107075859938	-0.6220422628778636	-0.31557226758738766	2.0338626657508883	-0.5684854217312562	-1.6518850088989612	1.8774303281092075	0.9361644295816571	-0.33336795758600346	2.026058799744605	-0.45899261140845793	-0.2730555976987158	2.05488496679923	-0.7231787766222859	-0.25172933742564196	2.0047722934914027	-0.6886413303393059	-0.2743236556732718	2.035050043780344	-0.5775507901324266
54	1.8	-0.28970780459564566	1.883371642287273	-0.6382280581669602	-0.30449788874149397	1.8758435882288118	-0.576472076422723																-0.2738205682609261	1.8876524124253342	-0.699888583323775	-0.226329040830505	1.7286890647387418	-0.6184976157330442													-0.3006529855610468	2.037212789282873	-0.6344354119647952	-0.2897675761199174	2.096819703950791	-0.6154160132788103	-0.3220087950381287	2.0264603314405365	-0.5609862820712529	-1.6589695166155707	1.873142324793815	0.9559137418748701	-0.33620080642898964	2.0211155416895776	-0.4653878030550855	-0.2790388030615962	2.0486678565345553	-0.7130832458943173	-0.25276863780510067	1.997960386234582	-0.6908301655679476	-0.2745351495045618	2.032993158372782	-0.5781535027409632
55	1.8333333333333333	-0.2943321487707166	1.867775958417115	-0.6320528481690489	-0.31098044073295794	1.8632358799478874	-0.5684446918663489																-0.28074002187228764	1.8728172856429885	-0.691493959141778	-0.226329040830505	1.7286890647387418	-0.6184976157330442													-0.3054307048205137	2.0200026504119384	-0.6275301884286668	-0.29573899449985597	2.0803355242438397	-0.6037526260736354	-0.326732026189673	2.0118403139949455	-0.5548974500754463	-0.3342070212517625	1.9521138854305147	-0.4584957093587232	-0.3324756317832352	2.007116117792431	-0.4590691401397508	-0.2841688450173607	2.0312204597800125	-0.7069412037553349	-0.2568023474190242	1.9753489068564019	-0.6895338874498149	-0.2844145918106902	2.0169950378491492	-0.5664237756142456
56	1.8666666666666667	-0.29986900260620014	1.8625657252546717	-0.6218202421876491	-0.31513214070683093	1.8579269397584581	-0.5630771384750042																-0.28533102480107564	1.8663035629860507	-0.6862795096462405	-0.226329040830505	1.7286890647387418	-0.6184976157330442													-0.3117635960091655	2.013064502095376	-0.6112411031690055	-0.30201481302506034	2.072089794430953	-0.5867398723552639	-0.3294445726949952	2.0033069913747763	-0.5288769096719577	-0.3353518863000695	1.9387270680928481	-0.451326092394816	-0.3206850988872553	1.9973246071855248	-0.45376333093555365	-0.2908372173722304	2.0220272966658164	-0.6900147859770366	-0.26446436164834675	1.9669333324167653	-0.6754174928688567	-0.2942940341168185	2.000996917325516	-0.5546940484875281
57	1.9	-0.3045734610086857	1.86931667799324	-0.6213419973280351	-0.3177622429672899	1.8636959910098159	-0.5649401869278868																-0.28726656619705265	1.8731251343841429	-0.684862298202005	-0.226329040830505	1.7286890647387418	-0.6184976157330442													-0.3148872795001079	2.0150059127363837	-0.6043655259741988	-0.303055431199038	2.071542851060373	-0.5733841959671395	-0.33248213583321523	2.006415481886824	-0.5300331820188169	-0.33578751471487556	1.9420218394110615	-0.4460070598864884	-0.3215116423997152	1.996050035424178	-0.4251498409610765	-0.2900210116943413	2.0261043740414935	-0.6789864692597792	-0.2684087546505565	1.9696132648653446	-0.6798809076251735	-0.29435506902915465	1.9816128026178983	-0.5677179669670634
